<svg xmlns="http://www.w3.org/2000/svg" fill-rule="evenodd" stroke-linejoin="round" stroke-miterlimit="2" clip-rule="evenodd" viewBox="0 0 32 32" id="basketball">
  <path d="M16,2c-7.727,0 -14,6.273 -14,14c0,7.727 6.273,14 14,14c7.727,0 14,-6.273 14,-14c0,-7.727 -6.273,-14 -14,-14Zm-0.366,16.856c-2.485,2.01 -5.267,3.828 -8.197,5.548c2.178,2.219 5.211,3.596 8.563,3.596c0.629,-0 1.247,-0.049 1.849,-0.142c0.483,-3.106 -0.256,-6.366 -2.215,-9.002Zm3.549,-3.235c-0.641,0.667 -1.316,1.313 -2.02,1.939c2.169,2.862 3.091,6.37 2.766,9.781c1.74,-0.603 3.298,-1.596 4.571,-2.874c-0.015,-0.03 -0.03,-0.061 -0.043,-0.094c-1.342,-3.333 -3.101,-6.25 -5.274,-8.752Zm-4.86,1.744c-2.8,-2.7 -6.594,-3.772 -10.181,-3.214c-0.093,0.602 -0.142,1.22 -0.142,1.849c0,2.543 0.792,4.901 2.144,6.844c2.921,-1.701 5.704,-3.489 8.179,-5.479Zm7.493,-4.877c-0.404,0.558 -0.831,1.102 -1.279,1.633c2.188,2.479 3.988,5.348 5.399,8.605c1.303,-1.919 2.064,-4.234 2.064,-6.726c-0,-0.244 -0.007,-0.487 -0.022,-0.727c-2.2,-0.4 -4.322,-1.329 -6.162,-2.785Zm-14.283,-4.988c-1.278,1.272 -2.27,2.831 -2.874,4.571c3.998,-0.381 8.13,0.952 11.198,3.998c0.689,-0.613 1.347,-1.246 1.972,-1.901c-2.807,-2.804 -6.209,-5.011 -10.204,-6.626c-0.031,-0.012 -0.062,-0.027 -0.092,-0.042Zm17.043,0.11c-0.47,1.12 -1.021,2.187 -1.645,3.207c1.418,1.154 3.038,1.936 4.731,2.345c-0.517,-2.128 -1.602,-4.035 -3.086,-5.552Zm-7.849,-3.588c-0.24,-0.015 -0.483,-0.022 -0.727,-0.022c-2.492,-0 -4.808,0.761 -6.728,2.064c3.833,1.666 7.132,3.865 9.892,6.602c0.411,-0.497 0.803,-1.007 1.174,-1.531c-1.937,-2.041 -3.14,-4.523 -3.611,-7.113Zm2.111,0.316c0.441,1.824 1.314,3.564 2.62,5.057c0.583,-1.001 1.091,-2.052 1.516,-3.159c-1.227,-0.878 -2.626,-1.531 -4.136,-1.898Z"></path>
</svg>
